HIERARCHY
ROOT joint_Root
{
	OFFSET 0.0 0.0 0.0
	CHANNELS 6 Xposition Yposition Zposition Zrotation Xrotation Yrotation 
	JOINT Hips
	{
		OFFSET -17.1583 93.1646 452.98
		CHANNELS 6 Xposition Yposition Zposition Zrotation Xrotation Yrotation 
		JOINT Spine
		{
			OFFSET 15.7357 0.0 0.0
			CHANNELS 6 Xposition Yposition Zposition Zrotation Xrotation Yrotation 
			JOINT Chest
			{
				OFFSET 8.98455 -0.406207 0.0
				CHANNELS 6 Xposition Yposition Zposition Zrotation Xrotation Yrotation 
				JOINT Neck
				{
					OFFSET 16.3773 0.0 0.0
					CHANNELS 6 Xposition Yposition Zposition Zrotation Xrotation Yrotation 
					JOINT Head
					{
						OFFSET 6.45672 0.0 0.0
						CHANNELS 6 Xposition Yposition Zposition Zrotation Xrotation Yrotation 
						End Site
						{
							OFFSET 0.0 0.0 0.0
						}
					}
				}
				JOINT Shoulder_L
				{
					OFFSET 12.9942 -0.242716 4.98039
					CHANNELS 6 Xposition Yposition Zposition Zrotation Xrotation Yrotation 
					JOINT UpperArm_L
					{
						OFFSET 5.34809 0.0 0.0
						CHANNELS 6 Xposition Yposition Zposition Zrotation Xrotation Yrotation 
						JOINT LowerArm_L
						{
							OFFSET 24.3286 1.87007e-05 0.0
							CHANNELS 6 Xposition Yposition Zposition Zrotation Xrotation Yrotation 
							JOINT Hand_L
							{
								OFFSET 22.2916 0.0 0.0
								CHANNELS 6 Xposition Yposition Zposition Zrotation Xrotation Yrotation 
								End Site
								{
									OFFSET 0.0 0.0 0.0
								}
							}
						}
					}
				}
				JOINT Shoulder_R
				{
					OFFSET 12.9945 -0.242716 -4.98039
					CHANNELS 6 Xposition Yposition Zposition Zrotation Xrotation Yrotation 
					JOINT UpperArm_R
					{
						OFFSET -5.34813 0.0 0.0
						CHANNELS 6 Xposition Yposition Zposition Zrotation Xrotation Yrotation 
						JOINT LowerArm_R
						{
							OFFSET -24.3289 0.000322201 0.0
							CHANNELS 6 Xposition Yposition Zposition Zrotation Xrotation Yrotation 
							JOINT Hand_R
							{
								OFFSET -22.2915 -0.000108084 0.0
								CHANNELS 6 Xposition Yposition Zposition Zrotation Xrotation Yrotation 
								End Site
								{
									OFFSET 0.0 0.0 0.0
								}
							}
						}
					}
				}
			}
		}
		JOINT UpperLeg_L
		{
			OFFSET -2.19248 -6.46944 0.0
			CHANNELS 6 Xposition Yposition Zposition Zrotation Xrotation Yrotation 
			JOINT LowerLeg_L
			{
				OFFSET 39.0811 0.0 -1.23785e-05
				CHANNELS 6 Xposition Yposition Zposition Zrotation Xrotation Yrotation 
				JOINT Foot_L
				{
					OFFSET 40.9854 0.0 -1.26872e-05
					CHANNELS 6 Xposition Yposition Zposition Zrotation Xrotation Yrotation 
					JOINT Toes_L
					{
						OFFSET 11.7543 0.0 0.0
						CHANNELS 6 Xposition Yposition Zposition Zrotation Xrotation Yrotation 
						End Site
						{
							OFFSET 0.0 0.0 0.0
						}
					}
				}
			}
		}
		JOINT UpperLeg_R
		{
			OFFSET -2.19251 6.46944 0.0
			CHANNELS 6 Xposition Yposition Zposition Zrotation Xrotation Yrotation 
			JOINT LowerLeg_R
			{
				OFFSET -39.0811 -0.00228153 -0.0401928
				CHANNELS 6 Xposition Yposition Zposition Zrotation Xrotation Yrotation 
				JOINT Foot_R
				{
					OFFSET -40.9854 0.0 0.0
					CHANNELS 6 Xposition Yposition Zposition Zrotation Xrotation Yrotation 
					JOINT Toes_R
					{
						OFFSET -11.7543 0.0 0.0
						CHANNELS 6 Xposition Yposition Zposition Zrotation Xrotation Yrotation 
						End Site
						{
							OFFSET 0.0 0.0 0.0
						}
					}
				}
			}
		}
	}
}
MOTION
Frames:	4
Frame Time:	0.0333333
0.000000 0.000000 0.000000 0.000000 0.000000 -0.000000 -0.366331 92.676800 1.979440 88.293000 0.739841 4.335950 15.735700 0.000005 -0.000001 69.060100 86.092900 -66.164900 8.984550 -0.406207 -0.000000 -0.385178 -2.997830 5.778330 16.377300 -0.000001 -0.000001 5.290850 4.642840 -7.173940 6.456720 -0.000001 -0.000000 4.221280 5.057580 -10.579600 12.994200 -0.242716 4.980390 -92.773500 8.943470 -72.692200 5.348090 -0.000007 -0.000001 -74.582800 20.267400 1.683250 24.328600 0.000019 0.000005 11.736300 26.500800 -24.966000 22.291600 -0.000001 0.000005 -4.187010 5.063360 5.941300 12.994500 -0.242716 -4.980390 88.886500 3.580180 -72.710700 -5.348130 -0.000001 -0.000004 -68.279200 9.690750 -5.267560 -24.328900 0.000322 -0.000009 -0.084519 -1.137360 -4.196740 -22.291500 -0.000108 -0.000004 -1.306510 5.241000 1.667890 -2.192480 -6.469440 -0.000000 -172.949000 -6.089000 3.056900 39.081100 -0.000007 -0.000012 0.039317 -0.128690 16.988700 40.985400 -0.000006 -0.000013 -0.095378 15.118100 -70.302400 11.754300 -0.000000 0.000003 -0.001778 0.193537 -8.725070 -2.192510 6.469440 -0.000001 176.897000 6.629800 -175.352000 -39.081100 -0.002282 -0.040193 0.037475 -0.132011 14.501200 -40.985400 0.000008 0.000006 -4.374850 5.162010 -70.175400 -11.754300 -0.000006 -0.000006 -0.011656 0.283288 -5.060570
0.000000 0.000000 0.000000 0.000000 0.000000 -0.000000 -0.300867 92.705600 1.974050 88.363600 1.162370 4.004790 15.735700 0.000005 -0.000001 65.402000 86.114000 -62.536200 8.984550 -0.406207 -0.000000 -0.606405 -3.443620 5.711920 16.377300 -0.000001 -0.000001 5.332000 4.731840 -7.887970 6.456720 -0.000001 -0.000000 4.216700 5.272040 -12.514800 12.994200 -0.242716 4.980390 -92.834700 9.121190 -72.653900 5.348090 -0.000007 -0.000001 -74.098700 19.430800 2.048920 24.328600 0.000019 0.000005 11.942400 26.337500 -25.488600 22.291600 -0.000001 0.000005 -4.193760 5.066340 5.874980 12.994500 -0.242716 -4.980390 88.950700 3.266560 -72.179900 -5.348130 -0.000001 -0.000004 -66.564000 6.493340 -5.351730 -24.328900 0.000322 -0.000009 -0.035494 -0.631794 -3.118690 -22.291500 -0.000108 -0.000004 -3.895010 5.239540 1.708070 -2.192480 -6.469440 -0.000000 -173.066000 -6.102490 2.740360 39.081100 -0.000007 -0.000012 0.040059 -0.132664 16.802400 40.985400 -0.000006 -0.000013 -0.016368 15.522900 -70.279900 11.754300 -0.000000 0.000003 -0.001969 0.195961 -8.626490 -2.192510 6.469440 -0.000001 176.754000 6.989300 -175.521000 -39.081100 -0.002282 -0.040193 0.032476 -0.114644 14.263600 -40.985400 0.000008 0.000006 -4.776340 5.188720 -70.015400 -11.754300 -0.000006 -0.000006 -0.011681 0.283467 -5.053250
0.000000 0.000000 0.000000 0.000000 0.000000 -0.000000 -0.257993 92.710000 2.042090 88.406200 1.581310 3.730470 15.735700 0.000005 -0.000001 63.080800 86.169900 -60.372600 8.984550 -0.406207 -0.000000 -0.843132 -3.670670 5.388380 16.377300 -0.000001 -0.000001 5.268620 4.726140 -8.468580 6.456720 -0.000001 -0.000000 4.186100 5.341410 -14.022900 12.994200 -0.242716 4.980390 -92.892600 9.292170 -72.623600 5.348090 -0.000007 -0.000001 -73.207800 19.051800 2.166530 24.328600 0.000019 0.000005 12.045300 26.145300 -25.838300 22.291600 -0.000001 0.000005 -4.229210 5.072990 5.726070 12.994500 -0.242716 -4.980390 89.145000 2.564510 -71.554100 -5.348130 -0.000001 -0.000004 -64.758400 1.808120 -5.490570 -24.328900 0.000322 -0.000009 -0.013722 -0.615015 -1.191410 -22.291500 -0.000108 -0.000004 -6.249720 5.227100 2.032460 -2.192480 -6.469440 -0.000000 -173.126000 -6.104510 2.471780 39.081100 -0.000007 -0.000012 0.039047 -0.129848 16.736700 40.985400 -0.000006 -0.000013 0.057202 15.878700 -70.282300 11.754300 -0.000000 0.000003 -0.002018 0.196573 -8.601610 -2.192510 6.469440 -0.000001 176.662000 7.401040 -175.613000 -39.081100 -0.002282 -0.040193 0.030275 -0.107300 14.095700 -40.985400 0.000008 0.000006 -4.926080 5.193690 -69.953400 -11.754300 -0.000006 -0.000006 -0.011496 0.282160 -5.106790
0.000000 0.000000 0.000000 0.000000 0.000000 -0.000000 -0.239859 92.722000 2.117660 88.386200 1.988140 3.413720 15.735700 0.000005 -0.000001 61.824800 86.321900 -59.413500 8.984550 -0.406207 -0.000000 -1.200310 -3.661160 4.783930 16.377300 -0.000001 -0.000001 5.256790 4.597470 -8.794530 6.456720 -0.000001 -0.000000 4.178640 5.255940 -15.053400 12.994200 -0.242716 4.980390 -92.914600 9.363870 -72.624200 5.348090 -0.000007 -0.000001 -72.113200 18.371200 2.055100 24.328600 0.000019 0.000005 12.154600 26.258800 -25.957300 22.291600 -0.000001 0.000005 -4.080240 5.075420 5.671450 12.994500 -0.242716 -4.980390 89.376700 1.807570 -70.970700 -5.348130 -0.000001 -0.000004 -62.368900 -4.693450 -5.495440 -24.328900 0.000322 -0.000009 -0.000482 -1.690810 -0.000017 -22.291500 -0.000108 -0.000004 -7.134780 5.205310 2.586300 -2.192480 -6.469440 -0.000000 -173.162000 -5.837490 2.172000 39.081100 -0.000007 -0.000012 0.038931 -0.130234 16.643100 40.985400 -0.000006 -0.000013 0.075582 15.981000 -70.276500 11.754300 -0.000000 0.000003 -0.001847 0.194412 -8.689520 -2.192510 6.469440 -0.000001 176.633000 7.794460 -175.700000 -39.081100 -0.002282 -0.040193 0.024957 -0.087851 13.828600 -40.985400 0.000008 0.000006 -5.313910 5.278770 -69.798200 -11.754300 -0.000006 -0.000006 -0.011796 0.284268 -5.020440
